<?xml version="1.0" encoding="UTF-8" standalone="no"?>
<!-- Uploaded to: SVG Repo, www.svgrepo.com, Generator: SVG Repo Mixer Tools -->

<svg
   fill="#000000"
   height="1972.3846"
   width="1972.3846"
   version="1.1"
   id="Capa_1"
   viewBox="0 0 732.2478 732.2478"
   xml:space="preserve"
   sodipodi:docname="off-button.svg"
   inkscape:version="1.4 (86a8ad7, 2024-10-11)"
   inkscape:export-filename="off-button.png"
   inkscape:export-xdpi="272.8421"
   inkscape:export-ydpi="272.8421"
   xmlns:inkscape="http://www.inkscape.org/namespaces/inkscape"
   xmlns:sodipodi="http://sodipodi.sourceforge.net/DTD/sodipodi-0.dtd"
   xmlns="http://www.w3.org/2000/svg"
   xmlns:svg="http://www.w3.org/2000/svg"><defs
   id="defs1"><linearGradient
     id="SVGID_2_"
     gradientUnits="userSpaceOnUse"
     x1="-1249.2573"
     y1="-1000.3318"
     x2="-1249.2573"
     y2="-999.22754"
     gradientTransform="matrix(-0.82988463,0,0,-0.82988463,-988.09828,-758.42311)"><stop
       offset="0"
       style="stop-color:#FDFDFF"
       id="stop12" /><stop
       offset="1"
       style="stop-color:#FCFEFF;stop-opacity:0"
       id="stop14" /></linearGradient><clipPath
     clipPathUnits="userSpaceOnUse"
     id="clipPath11"><rect
       style="opacity:0.396947;fill:#0f2435;stroke-width:1.89517;stroke-linecap:square;stroke-miterlimit:4.2"
       id="rect11"
       width="15.372027"
       height="15.372027"
       x="40.955151"
       y="63.024132" /></clipPath><linearGradient
     id="SVGID_1_"
     gradientUnits="userSpaceOnUse"
     x1="1.5"
     y1="0.27405"
     x2="1.5"
     y2="1.37839"
     gradientTransform="matrix(0.82988463,0,0,0.82988463,47.396309,69.455888)"><stop
       offset="0"
       style="stop-color:#FDFDFF"
       id="stop5" /><stop
       offset="1"
       style="stop-color:#FCFEFF;stop-opacity:0"
       id="stop7" /></linearGradient><clipPath
     clipPathUnits="userSpaceOnUse"
     id="clipPath12"><rect
       style="opacity:0.396947;fill:#0f2435;stroke-width:1.89517;stroke-linecap:square;stroke-miterlimit:4.2"
       id="rect12"
       width="15.372027"
       height="15.372027"
       x="40.955151"
       y="63.024132" /></clipPath><clipPath
     clipPathUnits="userSpaceOnUse"
     id="clipPath14"><rect
       style="opacity:0.396947;fill:#0f2435;stroke-width:1.11601;stroke-linecap:square;stroke-miterlimit:4.2"
       id="rect14"
       width="9.0521126"
       height="9.0521126"
       x="44.115078"
       y="66.184074" /></clipPath><filter
     style="color-interpolation-filters:sRGB"
     inkscape:label="Feather"
     id="filter20"
     x="-0.46162085"
     y="-0.46162085"
     width="1.9232417"
     height="1.9232417"><feGaussianBlur
       stdDeviation="1.2729698"
       result="blur"
       id="feGaussianBlur18" /><feComposite
       in="SourceGraphic"
       in2="blur"
       operator="atop"
       result="composite1"
       id="feComposite18" /><feComposite
       in2="composite1"
       operator="in"
       result="composite2"
       id="feComposite19" /><feComposite
       in2="composite2"
       operator="in"
       result="composite3"
       id="feComposite20" /></filter></defs><sodipodi:namedview
   id="namedview1"
   pagecolor="#ffffff"
   bordercolor="#000000"
   borderopacity="0.25"
   inkscape:showpageshadow="2"
   inkscape:pageopacity="0.0"
   inkscape:pagecheckerboard="0"
   inkscape:deskcolor="#d1d1d1"
   inkscape:zoom="0.3959798"
   inkscape:cx="1213.4457"
   inkscape:cy="866.2058"
   inkscape:window-width="1920"
   inkscape:window-height="1017"
   inkscape:window-x="-8"
   inkscape:window-y="-8"
   inkscape:window-maximized="1"
   inkscape:current-layer="Capa_1" />
<circle
   style="opacity:1;fill:#253a4b;fill-opacity:1;stroke-width:2.65175;stroke-linecap:square;stroke-miterlimit:4.2"
   id="path2"
   cx="366.12393"
   cy="366.12393"
   r="148.5" /><path
   d="m 511.60693,336.19592 c -0.989,-4.833 -2.213,-9.581 -3.659,-14.231 -0.362,-1.162 -0.737,-2.319 -1.126,-3.469 -0.778,-2.3 -1.612,-4.575 -2.498,-6.823 -0.443,-1.124 -0.9,-2.241 -1.369,-3.352 -1.409,-3.331 -2.936,-6.6 -4.576,-9.802 -1.093,-2.134 -2.237,-4.239 -3.429,-6.312 -5.96,-10.365 -13.135,-19.943 -21.331,-28.539 -1.639,-1.719 -3.319,-3.399 -5.038,-5.038 -8.596,-8.196 -18.174,-15.371 -28.539,-21.331 -2.073,-1.192 -4.178,-2.336 -6.312,-3.429 -3.202,-1.64 -6.471,-3.167 -9.802,-4.576 -1.11,-0.47 -2.228,-0.926 -3.352,-1.369 -2.248,-0.886 -4.523,-1.72 -6.823,-2.498 -1.15,-0.389 -2.306,-0.765 -3.469,-1.126 -4.65,-1.446 -9.398,-2.67 -14.231,-3.659 -9.668,-1.979 -19.677,-3.018 -29.929,-3.018 -10.252,0 -20.261,1.039 -29.928,3.017 -4.833,0.989 -9.581,2.213 -14.231,3.659 -1.162,0.362 -2.319,0.737 -3.469,1.126 -2.3,0.778 -4.575,1.612 -6.823,2.498 -1.124,0.443 -2.241,0.9 -3.352,1.369 -3.331,1.409 -6.6,2.936 -9.802,4.576 -2.134,1.093 -4.239,2.237 -6.312,3.429 -10.365,5.961 -19.943,13.136 -28.539,21.331 -1.719,1.639 -3.399,3.319 -5.038,5.038 -8.196,8.597 -15.371,18.175 -21.331,28.54 -1.192,2.073 -2.336,4.178 -3.429,6.312 -1.64,3.202 -3.167,6.471 -4.576,9.802 -0.47,1.11 -0.926,2.228 -1.369,3.352 -0.886,2.248 -1.72,4.523 -2.498,6.823 -0.389,1.15 -0.765,2.306 -1.126,3.469 -1.446,4.65 -2.67,9.398 -3.659,14.231 -1.979,9.667 -3.018,19.676 -3.018,29.928 0,21.785 4.691,42.474 13.118,61.113 0.991,2.193 2.035,4.357 3.128,6.492 1.64,3.202 3.393,6.336 5.253,9.398 1.24,2.041 2.528,4.05 3.863,6.025 0.667,0.988 1.346,1.967 2.036,2.937 1.38,1.941 2.806,3.847 4.276,5.717 1.47,1.87 2.983,3.704 4.539,5.5 1.556,1.796 3.154,3.555 4.793,5.274 1.639,1.719 3.319,3.399 5.038,5.038 8.596,8.196 18.174,15.371 28.539,21.331 2.073,1.192 4.178,2.335 6.312,3.429 3.202,1.64 6.471,3.167 9.802,4.576 1.11,0.47 2.228,0.926 3.352,1.369 2.248,0.886 4.523,1.72 6.823,2.498 1.15,0.389 2.306,0.765 3.469,1.126 4.65,1.446 9.398,2.67 14.231,3.659 9.667,1.978 19.676,3.017 29.928,3.017 10.252,0 20.261,-1.039 29.928,-3.017 4.833,-0.989 9.581,-2.213 14.231,-3.659 1.162,-0.362 2.319,-0.737 3.469,-1.126 2.3,-0.778 4.575,-1.612 6.823,-2.498 1.124,-0.443 2.241,-0.9 3.352,-1.369 3.331,-1.409 6.6,-2.936 9.802,-4.576 2.134,-1.093 4.239,-2.237 6.312,-3.429 10.365,-5.96 19.943,-13.135 28.539,-21.331 1.719,-1.639 3.399,-3.319 5.038,-5.038 1.639,-1.719 3.237,-3.478 4.793,-5.274 1.556,-1.796 3.07,-3.63 4.539,-5.5 1.47,-1.87 2.895,-3.776 4.276,-5.717 0.69,-0.97 1.369,-1.949 2.036,-2.937 1.334,-1.975 2.622,-3.984 3.863,-6.025 1.86,-3.062 3.613,-6.196 5.253,-9.398 1.093,-2.135 2.136,-4.299 3.128,-6.492 8.427,-18.639 13.118,-39.328 13.118,-61.113 0,-10.252 -1.039,-20.261 -3.017,-29.928 z m -159.816,-69.034 c 0,-7.698 6.302,-13.938 14,-13.938 7.698,0 14,6.24 14,13.938 v 42.095 c 0,7.698 -6.302,13.938 -14,13.938 -7.698,0 -14,-6.24 -14,-13.938 z m 109.319,102.699 c -2.609,49.571 -43.087,89.358 -92.696,91.101 -54.66,1.921 -99.868,-41.992 -99.868,-96.236 0,-29.416 13.742,-55.79 34.349,-73.467 8.148,-6.99 20.743,-1.228 20.743,9.507 v 0 c 0,3.708 -1.662,7.201 -4.485,9.606 -15.281,13.024 -25.284,32.549 -25.284,54.353 0,39.125 32.05,70.956 71.175,70.956 39.125,0 70.919,-31.831 70.919,-70.956 0,-21.124 -8.839,-40.118 -23.92,-53.128 -2.802,-2.417 -4.45,-5.903 -4.45,-9.603 v 0 c 0,-10.838 12.8,-16.648 20.923,-9.473 21.176,18.705 34.213,46.571 32.594,77.34 z"
   id="path1"
   style="fill:#06141f;fill-opacity:1" />
<ellipse
   fill="url(#SVGID_1_)"
   cx="48.641132"
   cy="70.141563"
   rx="0.75648963"
   ry="0.45823735"
   id="ellipse10"
   style="opacity:0.521505;fill:url(#SVGID_1_);stroke-width:0.829885"
   clip-path="url(#clipPath12)"
   transform="matrix(123.87769,0,0,123.87769,-5659.4272,-8393.2821)" /><ellipse
   opacity="0.3"
   fill="url(#SVGID_2_)"
   cx="48.641132"
   cy="71.278671"
   rx="0.75648963"
   ry="0.45823735"
   id="ellipse17"
   style="opacity:0.261649;fill:url(#SVGID_2_);stroke-width:0.829885"
   clip-path="url(#clipPath11)"
   transform="matrix(123.87769,0,0,123.87769,-5659.4272,-8393.2821)" /></svg>
