<?xml version="1.0" encoding="UTF-8" standalone="no"?>
<!-- Generator: Adobe Illustrator 25.0.0, SVG Export Plug-In . SVG Version: 6.00 Build 0)  -->

<svg
   version="1.0"
   id="svg15246"
   x="0px"
   y="0px"
   width="31.746872"
   height="31.746872"
   viewBox="0 0 31.746871 31.746872"
   enable-background="new 0 0 39.6836 39.68359"
   xml:space="preserve"
   sodipodi:docname="Rogan1PSLimeMedRotated.svg"
   inkscape:version="1.2 (dc2aedaf03, 2022-05-15)"
   inkscape:export-filename="..\artwork\medRogan.png"
   inkscape:export-xdpi="169.33952"
   inkscape:export-ydpi="169.33952"
   xmlns:inkscape="http://www.inkscape.org/namespaces/inkscape"
   xmlns:sodipodi="http://sodipodi.sourceforge.net/DTD/sodipodi-0.dtd"
   xmlns="http://www.w3.org/2000/svg"
   xmlns:svg="http://www.w3.org/2000/svg"
   xmlns:rdf="http://www.w3.org/1999/02/22-rdf-syntax-ns#"
   xmlns:cc="http://creativecommons.org/ns#"
   xmlns:dc="http://purl.org/dc/elements/1.1/"><metadata
     id="metadata40"><rdf:RDF><cc:Work
         rdf:about=""><dc:format>image/svg+xml</dc:format><dc:type
           rdf:resource="http://purl.org/dc/dcmitype/StillImage" /></cc:Work></rdf:RDF></metadata><defs
     id="defs38"><linearGradient
       id="circle10_00000040564015770224210420000017332425891665701041_"
       gradientUnits="userSpaceOnUse"
       x1="-3860.8176"
       y1="25.7715"
       x2="-3860.8176"
       y2="7.2523999"
       gradientTransform="matrix(-1.25,0,0,-1.25,-4806.2324,40.039731)"><stop
         offset="0"
         style="stop-color:#d5ff73;stop-opacity:1;"
         id="stop6" /><stop
         offset="1"
         style="stop-color:#7fb207;stop-opacity:1;"
         id="stop8" /></linearGradient><linearGradient
       id="SVGID_1_"
       gradientUnits="userSpaceOnUse"
       x1="19.841801"
       y1="6.9124599e-06"
       x2="19.841801"
       y2="39.683609"
       gradientTransform="matrix(0.8,0,0,0.8,1.5279541e-7,-7.4839478e-6)"><stop
         offset="0"
         style="stop-color:#FFFBFD"
         id="stop3" /><stop
         offset="1"
         style="stop-color:#000000"
         id="stop5" /></linearGradient></defs><sodipodi:namedview
     bordercolor="#666666"
     borderopacity="1.0"
     fit-margin-bottom="0"
     fit-margin-left="0"
     fit-margin-right="0"
     fit-margin-top="0"
     id="base"
     inkscape:current-layer="g35"
     inkscape:cx="6.9347057"
     inkscape:cy="14.393685"
     inkscape:document-units="mm"
     inkscape:pageopacity="0.0"
     inkscape:pageshadow="2"
     inkscape:window-height="1017"
     inkscape:window-maximized="1"
     inkscape:window-width="1920"
     inkscape:window-x="-8"
     inkscape:window-y="-8"
     inkscape:zoom="20.981424"
     pagecolor="#ffffff"
     showgrid="false"
     units="px"
     inkscape:showpageshadow="2"
     inkscape:pagecheckerboard="0"
     inkscape:deskcolor="#d1d1d1" /><g
     id="g35"
     transform="matrix(0.8,0,0,0.8,-5.5999973e-5,0)"><path
       d="m 8.8940451,10.189973 c -0.4493614,0.509701 -0.8626314,1.05026 -1.2367193,1.617538 l 0.3540482,0.233467 c 0.3226337,0.212757 0.4345493,0.643282 0.2375238,0.975759 -0.5782014,0.97572 -1.0248272,2.003569 -1.3342871,3.061813 -0.1055806,0.361051 -0.4858293,0.56779 -0.8517589,0.480611 l -0.418617,-0.09973 c -0.5137878,2.156755 -0.5295247,4.40248 -0.045852,6.566198 0.4836725,2.163717 1.4539943,4.189011 2.8372201,5.921759 l 0.341831,-0.272884 c 0.2978592,-0.237781 0.7319523,-0.204571 0.9826579,0.0825 0.3622015,0.41475 0.7512335,0.813053 1.1754735,1.187071 0.424271,0.374044 0.8682,0.710109 1.325083,1.017479 0.316221,0.212743 0.403575,0.639265 0.205,0.964563 l -0.227863,0.373293 c 1.892365,1.155167 4.023348,1.864055 6.230566,2.072703 2.207309,0.208635 4.433367,-0.08834 6.508683,-0.868419 l -0.151381,-0.40274 c -0.132354,-0.352118 0.02509,-0.755286 0.37006,-0.905286 1.011099,-0.439666 1.974909,-1.011596 2.870489,-1.707523 0.305169,-0.237136 0.746325,-0.180062 0.997835,0.11337 l 0.275954,0.321941 c 0.515926,-0.44223 1.00042,-0.919984 1.449796,-1.429685 2.500672,-2.836441 3.803697,-6.536485 3.63217,-10.31397 l -0.435789,0.01979 c -0.377822,0.01716 -0.714484,-0.258664 -0.750725,-0.635136 -0.106777,-1.109334 -0.352826,-2.204725 -0.732184,-3.261987 -0.128889,-0.359208 0.05965,-0.755796 0.411977,-0.902446 l 0.401039,-0.166932 C 32.464216,12.186269 31.156888,10.360218 29.493816,8.8940095 27.830744,7.4278008 25.855247,6.3596395 23.717821,5.7708661 L 23.602452,6.1896382 C 23.501088,6.5575656 23.131257,6.7943129 22.758728,6.7114606 21.662285,6.4676026 20.544757,6.3607995 19.430761,6.3939022 19.0527,6.4051331 18.736842,6.1056962 18.706491,5.7286832 l -0.035,-0.4348532 c -3.769152,0.3032811 -7.27677,2.0597026 -9.7774419,4.896143 z"
       id="path3"
       inkscape:connector-curvature="0"
       style="display:inline;fill:#424242" /><g
       id="g21"
       style="opacity:0.32"
       transform="rotate(-138.6,19.841865,19.841795)"><g
         id="g7"><path
           d="m 32.02743,14.11566 c 0.04254,0.09076 0.07007,0.18927 0.11053,0.28113 0.13385,0.30274 0.25311,0.61267 0.36444,0.92676 0.07318,0.20734 0.14337,0.41498 0.20654,0.62683 0.10876,0.36316 0.2033,0.73206 0.2821,1.1073 0.01678,0.08038 0.04498,0.15619 0.06036,0.23706 0.07208,0.3797 0.44073,0.62866 0.82342,0.57489 l 0.41998,-0.05902 c 3.1e-4,0.0021 3.7e-4,0.0043 6.7e-4,0.0064 l 1.08002,-0.15179 C 35.11927,15.81324 34.55226,14.0619 33.7087,12.4751 l -0.98645,0.52453 c 0.0019,0.0035 0.0043,0.0067 0.0062,0.01019 l -0.45337,0.24109 c -0.27361,0.19557 -0.39343,0.55354 -0.24768,0.86475 z"
           id="path5"
           inkscape:connector-curvature="0" /></g><g
         id="g11"><path
           d="M 5.80867,17.86949 C 6.19142,17.92332 6.56007,17.67436 6.63216,17.29466 6.64754,17.21373 6.6758,17.13792 6.69259,17.05754 6.77114,16.68327 6.8655,16.31541 6.9739,15.95317 7.03756,15.73949 7.10824,15.53008 7.18209,15.32097 7.29324,15.00768 7.41213,14.69841 7.54568,14.39641 7.58615,14.30461 7.61367,14.20629 7.65615,14.11559 7.8019,13.80431 7.68215,13.4464 7.40847,13.25078 L 6.95516,13.00975 c 0.00189,-0.0035 0.00433,-0.0067 0.00623,-0.01019 L 5.97494,12.47502 c -0.84357,1.58679 -1.41059,3.33813 -1.66682,5.19012 l 1.08002,0.1518 c 3.1e-4,-0.0021 3.7e-4,-0.0043 6.7e-4,-0.0064 z"
           id="path9"
           inkscape:connector-curvature="0" /></g><g
         id="g15"><path
           d="m 13.63413,32.56928 c 0.16345,-0.33514 0.04846,-0.74249 -0.26849,-0.93304 -0.9953,-0.54724 -1.91229,-1.21253 -2.7337,-1.98396 -0.25696,-0.2337 -0.64062,-0.22717 -0.91089,-0.01709 L 9.343,30.0003 C 9.34074,29.998 9.33885,29.9953 9.33659,29.993 l -0.77271,0.74615 c 1.26471,1.30731 2.75616,2.3866 4.40856,3.19325 l 0.47388,-0.97156 c -8.5e-4,-4.3e-4 -0.0018,-6.7e-4 -0.0026,-0.0011 z"
           id="path13"
           inkscape:connector-curvature="0" /></g><g
         id="g19"><path
           d="m 29.05162,29.65234 c -0.82135,0.77136 -1.73835,1.4367 -2.73359,1.98388 -0.31702,0.19049 -0.43213,0.59796 -0.26868,0.9331 l 0.19043,0.39044 c -8.5e-4,4.3e-4 -0.0018,6.7e-4 -0.0026,0.0011 l 0.47388,0.97156 c 1.65241,-0.80664 3.14393,-1.88592 4.40864,-3.19323 -0.21863,-0.21106 -0.47217,-0.45593 -0.7727,-0.74616 -0.0023,0.0024 -0.0041,0.0049 -0.0064,0.0073 L 29.96258,29.6353 c -0.27016,-0.21013 -0.65401,-0.21673 -0.91096,0.01704 z"
           id="path17"
           inkscape:connector-curvature="0" /></g></g><path
       d="m 5.3709431,31.399207 1.782733,-1.362848 0.2178427,-0.247094 C 7.056933,30.012086 6.6142251,29.95963 6.384712,29.644423 5.0449978,27.804617 4.095425,25.706976 3.597838,23.480879 3.1001985,21.254736 3.0663288,18.952412 3.495233,16.717315 c 0.076097,-0.396789 0.4788718,-0.643579 0.8718785,-0.5499 l 0.1882093,0.04485 C 4.9719202,14.464143 5.7047882,12.775466 6.737298,11.216871 L 6.5587766,11.099198 C 6.2219842,10.877051 6.1262846,10.41587 6.3630915,10.089229 6.6735243,9.6608694 7.0042848,9.2474985 7.3543172,8.8504647 10.041308,5.8026875 13.748354,3.8488488 17.763513,3.3454328 c 0.401542,-0.050387 0.762037,0.2557147 0.794465,0.6590881 0.0052,0.064283 0.01191,0.1480934 0.01768,0.2198209 1.813213,-0.1442599 3.645714,0.03248 5.418639,0.5201766 l 0.06013,-0.218184 c 0.107547,-0.3903791 0.519713,-0.6253973 0.904946,-0.5006568 2.164347,0.7011206 4.164692,1.8396744 5.875096,3.3476119 1.710449,1.5079771 3.090735,3.3498505 4.057526,5.4092255 0.172084,0.366601 -0.0094,0.804973 -0.383244,0.960599 l -0.208972,0.08697 c 0.706037,1.697829 1.111042,3.493729 1.195176,5.310725 l 0.218621,-0.0099 c 0.404302,-0.01834 0.754808,0.300841 0.755224,0.705534 0.0037,4.046639 -1.470164,7.96929 -4.157155,11.017068 -0.349992,0.396988 -0.718651,0.777028 -1.104725,1.138701 -0.294431,0.275824 -0.763925,0.23872 -1.026492,-0.06762 l -0.139165,-0.162405 c -1.416944,1.21975 -3.000454,2.158473 -4.682588,2.790879 l 0.06809,0.181103 c 0.142191,0.378174 -0.05217,0.80869 -0.436297,0.93401 -2.163723,0.705555 -4.452145,0.96049 -6.723054,0.745816 -2.270994,-0.214668 -4.471068,-0.893908 -6.464271,-1.992477 -0.341435,-0.188165 -0.449037,-0.620619 -0.267453,-0.960697 l -0.217704,0.246936 -1.128719,1.93944 c 7.487115,4.571826 17.391632,3.271731 23.393714,-3.53625 C 40.310952,24.479555 39.578627,12.839019 31.947287,6.1110476 24.315947,-0.6169238 12.675403,0.11539464 5.9474252,7.7467423 -0.05469028,14.554761 -0.10322448,24.544126 5.3709431,31.399207 Z"
       id="path23"
       inkscape:connector-curvature="0"
       style="fill:#333333" /><path
       d="M 6.7202168,34.725315 C 14.940147,41.972198 27.47851,41.18338 34.725385,32.963443 41.972261,24.743507 41.183457,12.205157 32.963513,4.9582747 24.743569,-2.2886074 12.20522,-1.4997896 4.9583447,6.7201468 -2.2885382,14.940077 -1.499713,27.478432 6.7202168,34.725315 Z M 31.947294,6.1110401 c 7.631354,6.7279709 8.363679,18.3685069 1.63567,25.9998139 -6.002075,6.807987 -15.906592,8.108082 -23.393742,3.536251 l -0.184469,0.31695 c -0.074661,0.128069 -0.2050162,0.215836 -0.3569974,0.240276 -0.055311,0.0089 -0.1107514,0.0014 -0.1658438,-0.0063 l -0.040846,0.001 C 8.6016854,35.666066 7.7928969,35.060514 7.0230646,34.381802 6.2571561,33.706563 5.5583365,32.984033 4.92689,32.222448 l -0.013949,-0.05257 c -0.01445,-0.05367 -0.028863,-0.107634 -0.026944,-0.163627 0.00511,-0.1544 0.075937,-0.294159 0.1935928,-0.384336 l 0.2913307,-0.22274 C -0.10325449,24.5441 -0.05468811,14.554682 5.9474264,7.7466501 12.67545,0.11535625 24.31594,-0.61693041 31.947294,6.1110401 Z"
       id="path25"
       inkscape:connector-curvature="0"
       style="opacity:0.35" /><rect
       x="-30.781082"
       y="-16.966984"
       width="5.55161"
       height="9.9718103"
       id="rect27"
       style="fill:#9fe300;fill-opacity:1"
       transform="rotate(-138.6)" /><path
       d="m 5.0513903,31.654004 c -0.1176993,0.09016 -0.1885211,0.229924 -0.1936492,0.38434 -0.00507,0.148148 0.049293,0.293287 0.1527171,0.408771 0.6184484,0.689107 1.2859858,1.351023 1.9844067,1.966764 0.6987285,0.616012 1.4390754,1.195326 2.1996472,1.722002 0.1278428,0.08841 0.2786509,0.124148 0.4249892,0.100559 0.1520028,-0.02444 0.282343,-0.112214 0.3570459,-0.240286 l 1.3131608,-2.256374 -0.0034,0.0038 -4.1643108,-3.671361 0.00337,-0.0038 z"
       id="path29"
       inkscape:connector-curvature="0"
       style="opacity:0.58;fill:#b3ff00;fill-opacity:1" /><path
       d="m 25.426757,34.734097 c 0.142191,0.378174 -0.05217,0.808689 -0.436298,0.934009 -2.163722,0.705556 -4.452145,0.96049 -6.723054,0.745816 C 15.996412,36.199254 13.796337,35.520014 11.803134,34.421445 11.4617,34.23328 11.354098,33.800826 11.535682,33.460748 l 0.920724,-1.044357 c 1.838586,1.079758 3.887265,1.754905 6.011967,1.95573 2.207309,0.208635 4.433367,-0.08834 6.508683,-0.868419 z m 3.918004,-3.815005 c 0.514008,-0.441083 0.997094,-0.917225 1.445047,-1.425327 2.500672,-2.836441 3.803697,-6.536486 3.632169,-10.31397 l 1.291592,-0.04896 c 0.404302,-0.01834 0.754809,0.300841 0.755224,0.705534 0.0037,4.04664 -1.470164,7.969291 -4.157154,11.017068 -0.349993,0.396989 -0.718651,0.777028 -1.104725,1.138701 -0.294431,0.275825 -0.763925,0.238721 -1.026492,-0.06762 z M 23.717841,5.7708577 c 2.137434,0.58878 4.112931,1.6569413 5.776003,3.12315 1.662338,1.4655603 2.969045,3.2906513 3.821169,5.3364823 l 1.193739,-0.48739 c 0.373822,-0.155627 0.555329,-0.593998 0.383244,-0.960599 C 33.925191,10.723126 32.54492,8.8812524 30.83447,7.3732753 29.124066,5.8653379 27.123721,4.7267841 24.959374,4.0256635 24.574141,3.900923 24.161982,4.1359336 24.054428,4.5263203 L 23.717796,5.770818 c 9.22e-4,2.396e-4 0.0018,6.878e-4 0.0027,8.943e-4 M 5.644263,16.459432 c -0.5137878,2.156756 -0.5295247,4.40248 -0.045852,6.566198 0.4655622,2.082734 1.3920946,4.030601 2.6937213,5.719419 L 7.3715263,29.789271 C 7.0569405,30.012092 6.6142326,29.959636 6.3847195,29.64443 5.0450053,27.804624 4.0954325,25.706983 3.5978455,23.480886 3.100206,21.254742 3.0663363,18.952418 3.4952405,16.717322 c 0.076097,-0.396789 0.4788718,-0.64358 0.8718785,-0.5499 z M 7.6610058,11.802263 M 18.671515,5.2938141 c -3.76916,0.3032886 -7.276769,2.0597167 -9.7774417,4.8961579 -0.4493614,0.5097 -0.8626314,1.05026 -1.2367192,1.617537 L 6.5587691,11.099191 C 6.2219767,10.877044 6.1262771,10.415863 6.363084,10.089222 6.6735168,9.6608628 7.0042773,9.2474919 7.3543097,8.8504581 10.0413,5.8026809 13.748347,3.8488422 17.763505,3.3454262 c 0.401542,-0.050387 0.762038,0.2557147 0.794466,0.6590881 z"
       id="path31"
       inkscape:connector-curvature="0"
       style="opacity:0.4" /><rect
       x="-30.781063"
       y="-17.842545"
       width="5.55161"
       height="0.87555999"
       id="rect33"
       style="opacity:0.58;fill:#d0ff62;fill-opacity:1"
       transform="rotate(-138.6)" /></g></svg>
